<svg width="158" height="29" viewBox="0 0 158 29" fill="none" xmlns="http://www.w3.org/2000/svg">
<mask id="mask0_10422_8578" style="mask-type:alpha" maskUnits="userSpaceOnUse" x="0" y="0" width="26" height="26">
<path d="M7.31023 0.802341C7.31023 0.35922 7.66945 0 8.11257 0H17.3841C17.8272 0 18.1864 0.359221 18.1864 0.802342V24.6943C18.1864 25.1374 17.8272 25.4966 17.3841 25.4966H8.11257C7.66945 25.4966 7.31023 25.1374 7.31023 24.6943V0.802341Z" fill="url(#paint0_linear_10422_8578)"/>
<path d="M0.802341 18.1864C0.35922 18.1864 0 17.8272 0 17.3841V8.11257C0 7.66945 0.359221 7.31023 0.802342 7.31023H24.6943C25.1374 7.31023 25.4966 7.66945 25.4966 8.11257V17.3841C25.4966 17.8272 25.1374 18.1864 24.6943 18.1864H0.802341Z" fill="url(#paint1_linear_10422_8578)"/>
</mask>
<g mask="url(#mask0_10422_8578)">
<path d="M16.2696 2.00386C16.2696 11.0649 8.92416 18.4104 -0.136919 18.4104C-9.198 18.4104 -16.5435 11.0649 -16.5435 2.00386C-16.5435 -7.05722 -9.198 -14.4027 -0.136919 -14.4027C8.92416 -14.4027 16.2696 -7.05722 16.2696 2.00386Z" fill="url(#paint2_linear_10422_8578)"/>
<g filter="url(#filter0_dd_10422_8578)">
<path d="M14.2257 -1.11025C14.2257 7.95083 6.88022 15.2963 -2.18086 15.2963C-11.2419 15.2963 -18.5874 7.95083 -18.5874 -1.11025C-18.5874 -10.1713 -11.2419 -17.5168 -2.18086 -17.5168C6.88022 -17.5168 14.2257 -10.1713 14.2257 -1.11025Z" fill="url(#paint3_linear_10422_8578)"/>
</g>
<path d="M33.2505 37.9134C25.5036 42.494 15.5101 39.9271 10.9295 32.1801C6.34894 24.4332 8.91581 14.4397 16.6628 9.85912C24.4098 5.27854 34.4032 7.84541 38.9838 15.5924C43.5644 23.3394 40.9975 33.3328 33.2505 37.9134Z" fill="url(#paint4_linear_10422_8578)"/>
<g filter="url(#filter1_dd_10422_8578)">
<path d="M27.0258 42.6305C18.071 41.7308 11.5411 33.7421 12.4408 24.7874C13.3406 15.8326 21.3292 9.3027 30.284 10.2024C39.2388 11.1022 45.7687 19.0908 44.8689 28.0456C43.9692 37.0004 35.9806 43.5303 27.0258 42.6305Z" fill="url(#paint5_linear_10422_8578)"/>
</g>
</g>
<circle cx="21.1129" cy="21.1126" r="1.73054" fill="#07BE8F"/>
<circle cx="23.7235" cy="23.5289" r="1.14638" fill="#1F9CC6"/>
<ellipse cx="12.7483" cy="28.0269" rx="10.5101" ry="0.973154" fill="#479681" fill-opacity="0.14"/>
<path d="M31.9194 20.1163V8.70505H33.8027L38.9098 8.68909C40.9739 8.68909 42.5752 9.1732 43.7137 10.1414C44.8521 11.1096 45.4214 12.5301 45.4214 14.4027C45.4214 16.2753 44.8521 17.6957 43.7137 18.6639C42.5752 19.6321 40.9739 20.1163 38.9098 20.1163H31.9194ZM38.7342 10.7639H34.473V18.0415H38.7342C40.0749 18.0415 41.091 17.7489 41.7825 17.1637C42.4741 16.5785 42.8199 15.6582 42.8199 14.4027C42.8199 13.1365 42.4741 12.2162 41.7825 11.6416C41.091 11.0564 40.0749 10.7639 38.7342 10.7639Z" fill="#0F172A"/>
<path d="M46.7826 20.1163V11.897H53.0707C53.9964 11.897 54.6773 12.1311 55.1135 12.5992C55.5498 13.0567 55.7679 13.6632 55.7679 14.4186V16.1263H53.4218V14.7059C53.4218 14.0675 53.1026 13.7483 52.4642 13.7483H49.1286V20.1163H46.7826Z" fill="#0F172A"/>
<path d="M61.563 20.1961C60.1373 20.1961 59.0254 19.8449 58.2274 19.1427C57.4294 18.4298 57.0305 17.3871 57.0305 16.0146C57.0305 14.6314 57.4294 13.5887 58.2274 12.8865C59.0254 12.1736 60.1373 11.8172 61.563 11.8172H65.5529C66.4893 11.8172 67.2021 12.0406 67.6916 12.4875C68.1916 12.9237 68.4417 13.5515 68.4417 14.3708C68.4417 16.0412 67.4788 16.8764 65.5529 16.8764H59.5202C59.7436 17.8659 60.4246 18.3607 61.563 18.3607H68.0267V20.1961H61.563ZM61.563 13.6526C60.4671 13.6526 59.7915 14.1154 59.5361 15.0411H65.4412C65.654 15.0411 65.8189 14.9772 65.936 14.8495C66.0637 14.7219 66.1275 14.5463 66.1275 14.3229C66.1275 13.876 65.8987 13.6526 65.4412 13.6526H61.563Z" fill="#0F172A"/>
<path d="M72.067 20.1163C71.2052 20.1163 70.5455 19.8981 70.088 19.4619C69.6305 19.0257 69.4017 18.4032 69.4017 17.5946C69.4017 16.7966 69.6305 16.1795 70.088 15.7433C70.5455 15.3071 71.2052 15.0889 72.067 15.0889H78.1955V14.7059C78.1955 14.0569 77.8764 13.7324 77.238 13.7324H70.471V11.897H77.8444C78.8127 11.897 79.4989 12.1204 79.9032 12.5673C80.3076 13.0035 80.5097 13.6206 80.5097 14.4186V20.1163H72.067ZM72.482 18.2809H78.1955V16.9243H72.482C72.2798 16.9243 72.1202 16.9881 72.0032 17.1158C71.8968 17.2329 71.8436 17.3925 71.8436 17.5946C71.8436 17.7968 71.8968 17.9617 72.0032 18.0894C72.1202 18.217 72.2798 18.2809 72.482 18.2809Z" fill="#0F172A"/>
<path d="M82.2711 20.1163V11.897H92.9163C93.8526 11.897 94.5389 12.1311 94.9751 12.5992C95.4113 13.0567 95.6294 13.6632 95.6294 14.4186V20.1163H93.3153V14.7059C93.3153 14.0569 92.9854 13.7324 92.3258 13.7324H90.1074V20.1163H87.7932V13.7324H84.5853V20.1163H82.2711Z" fill="#0F172A"/>
<path d="M97.04 20.1961V18.3607H104.86C105.307 18.3607 105.531 18.1106 105.531 17.6106C105.531 17.1211 105.307 16.8764 104.86 16.8764H99.801C98.8541 16.8764 98.1359 16.6636 97.6465 16.238C97.157 15.8018 96.9123 15.1794 96.9123 14.3708C96.9123 13.5515 97.157 12.9237 97.6465 12.4875C98.1465 12.0406 98.8647 11.8172 99.801 11.8172H107.079V13.6526H99.9128C99.4552 13.6526 99.2265 13.876 99.2265 14.3229C99.2265 14.5463 99.2903 14.7219 99.418 14.8495C99.5457 14.9772 99.7106 15.0411 99.9128 15.0411H105.275C106.105 15.0411 106.738 15.2592 107.174 15.6954C107.621 16.121 107.845 16.7434 107.845 17.5627C107.845 18.3926 107.621 19.0416 107.174 19.5098C106.728 19.9673 106.094 20.1961 105.275 20.1961H97.04Z" fill="#0F172A"/>
<path d="M112.691 20.3109V8.89968H125.204V10.9744H115.245V13.4961H124.278V15.5708H115.245V18.2361H125.204V20.3109H112.691Z" fill="#0F172A"/>
<path d="M126.952 20.3109V8.89968H129.091L134.373 12.6023H134.453L139.736 8.89968H141.874V20.3109H139.321V12.0916L135.698 14.5175V20.3109H133.145V14.5175L129.506 12.0916V20.3109H126.952Z" fill="#0F172A"/>
<path d="M144.112 20.3109V8.89968H153.672C154.853 8.89968 155.768 9.19759 156.417 9.79342C157.077 10.3893 157.406 11.2936 157.406 12.5066C157.406 13.5386 157.167 14.3473 156.688 14.9325C156.209 15.5176 155.528 15.8847 154.645 16.0337L157.279 20.3109H154.374L151.932 16.1135H146.666V20.3109H144.112ZM153.369 10.9744H146.666V14.0228L153.369 14.0387C153.837 14.0387 154.193 13.9217 154.438 13.6876C154.693 13.4535 154.821 13.0598 154.821 12.5066C154.821 11.9427 154.693 11.549 154.438 11.3256C154.193 11.0915 153.837 10.9744 153.369 10.9744Z" fill="#0F172A"/>
<defs>
<filter id="filter0_dd_10422_8578" x="-36.9874" y="-31.1168" width="69.613" height="69.613" filterUnits="userSpaceOnUse" color-interpolation-filters="sRGB">
<feFlood flood-opacity="0" result="BackgroundImageFix"/>
<feColorMatrix in="SourceAlpha" type="matrix" values="0 0 0 0 0 0 0 0 0 0 0 0 0 0 0 0 0 0 127 0" result="hardAlpha"/>
<feMorphology radius="2" operator="erode" in="SourceAlpha" result="effect1_dropShadow_10422_8578"/>
<feOffset dy="4"/>
<feGaussianBlur stdDeviation="6.5"/>
<feColorMatrix type="matrix" values="0 0 0 0 0.0745098 0 0 0 0 0.0627451 0 0 0 0 0.133333 0 0 0 0.06 0"/>
<feBlend mode="normal" in2="BackgroundImageFix" result="effect1_dropShadow_10422_8578"/>
<feColorMatrix in="SourceAlpha" type="matrix" values="0 0 0 0 0 0 0 0 0 0 0 0 0 0 0 0 0 0 127 0" result="hardAlpha"/>
<feMorphology radius="6" operator="erode" in="SourceAlpha" result="effect2_dropShadow_10422_8578"/>
<feOffset dy="4.8"/>
<feGaussianBlur stdDeviation="12.2"/>
<feColorMatrix type="matrix" values="0 0 0 0 0.0745098 0 0 0 0 0.0627451 0 0 0 0 0.133333 0 0 0 0.1 0"/>
<feBlend mode="normal" in2="effect1_dropShadow_10422_8578" result="effect2_dropShadow_10422_8578"/>
<feBlend mode="normal" in="SourceGraphic" in2="effect2_dropShadow_10422_8578" result="shape"/>
</filter>
<filter id="filter1_dd_10422_8578" x="-6.04209" y="-3.48043" width="69.3937" height="69.3938" filterUnits="userSpaceOnUse" color-interpolation-filters="sRGB">
<feFlood flood-opacity="0" result="BackgroundImageFix"/>
<feColorMatrix in="SourceAlpha" type="matrix" values="0 0 0 0 0 0 0 0 0 0 0 0 0 0 0 0 0 0 127 0" result="hardAlpha"/>
<feMorphology radius="2" operator="erode" in="SourceAlpha" result="effect1_dropShadow_10422_8578"/>
<feOffset dy="4"/>
<feGaussianBlur stdDeviation="6.5"/>
<feColorMatrix type="matrix" values="0 0 0 0 0.0745098 0 0 0 0 0.0627451 0 0 0 0 0.133333 0 0 0 0.06 0"/>
<feBlend mode="normal" in2="BackgroundImageFix" result="effect1_dropShadow_10422_8578"/>
<feColorMatrix in="SourceAlpha" type="matrix" values="0 0 0 0 0 0 0 0 0 0 0 0 0 0 0 0 0 0 127 0" result="hardAlpha"/>
<feMorphology radius="6" operator="erode" in="SourceAlpha" result="effect2_dropShadow_10422_8578"/>
<feOffset dy="4.8"/>
<feGaussianBlur stdDeviation="12.2"/>
<feColorMatrix type="matrix" values="0 0 0 0 0.0745098 0 0 0 0 0.0627451 0 0 0 0 0.133333 0 0 0 0.1 0"/>
<feBlend mode="normal" in2="effect1_dropShadow_10422_8578" result="effect2_dropShadow_10422_8578"/>
<feBlend mode="normal" in="SourceGraphic" in2="effect2_dropShadow_10422_8578" result="shape"/>
</filter>
<linearGradient id="paint0_linear_10422_8578" x1="21.6133" y1="33.1177" x2="-2.19314" y2="32.6589" gradientUnits="userSpaceOnUse">
<stop stop-color="#07BE8F"/>
<stop offset="1" stop-color="#5435DB"/>
</linearGradient>
<linearGradient id="paint1_linear_10422_8578" x1="21.6133" y1="33.1177" x2="-2.19314" y2="32.6589" gradientUnits="userSpaceOnUse">
<stop stop-color="#07BE8F"/>
<stop offset="1" stop-color="#5435DB"/>
</linearGradient>
<linearGradient id="paint2_linear_10422_8578" x1="11.2719" y1="28.2184" x2="-19.3659" y2="27.6279" gradientUnits="userSpaceOnUse">
<stop stop-color="#07BE8F"/>
<stop offset="1" stop-color="#5435DB"/>
</linearGradient>
<linearGradient id="paint3_linear_10422_8578" x1="9.22797" y1="25.1042" x2="-21.4099" y2="24.5138" gradientUnits="userSpaceOnUse">
<stop stop-color="#07BE8F"/>
<stop offset="1" stop-color="#5435DB"/>
</linearGradient>
<linearGradient id="paint4_linear_10422_8578" x1="8.3114" y1="46.8925" x2="-6.6719" y2="20.3995" gradientUnits="userSpaceOnUse">
<stop stop-color="#07BE8F"/>
<stop offset="1" stop-color="#5435DB"/>
</linearGradient>
<linearGradient id="paint5_linear_10422_8578" x1="1.61511" y1="35.0884" x2="5.24086" y2="4.86869" gradientUnits="userSpaceOnUse">
<stop stop-color="#07BE8F"/>
<stop offset="1" stop-color="#5435DB"/>
</linearGradient>
</defs>
</svg>
