<svg width="24" height="24" viewBox="0 0 24 24" fill="none" xmlns="http://www.w3.org/2000/svg">
<path d="M12.8203 4.26393C12.7688 4.28737 12.6844 4.35299 12.6328 4.40924C12.5391 4.51237 12.5391 4.57799 12.5391 12.0077V19.503L12.6656 19.6249C12.8156 19.7749 13.1813 19.8311 13.4063 19.7374C13.7063 19.6108 13.6875 20.1358 13.6875 12.0077C13.6875 6.36393 13.6734 4.57331 13.6313 4.47956C13.5984 4.40924 13.5188 4.32487 13.4484 4.28737C13.3078 4.21706 12.9703 4.20299 12.8203 4.26393Z" fill="white"/>
<path d="M6.19688 6.24203C6.10313 6.27016 6.00938 6.34516 5.95312 6.43891C5.86406 6.58422 5.85938 6.71078 5.85938 11.9936C5.85938 16.5592 5.86875 17.417 5.925 17.5248C6.09375 17.8483 6.70313 17.8905 6.93281 17.5952C7.03125 17.4733 7.03125 17.4498 7.03125 12.003C7.03125 6.56078 7.03125 6.53266 6.9375 6.41078C6.84375 6.2936 6.58125 6.18578 6.42188 6.19516C6.38438 6.19516 6.28125 6.2186 6.19688 6.24203Z" fill="white"/>
<path d="M15.1078 6.24243C15.0281 6.26587 14.9156 6.34087 14.8641 6.40649C14.7656 6.53305 14.7656 6.54712 14.7656 12.0034C14.7656 17.4502 14.7656 17.4737 14.8641 17.5956C15.0563 17.844 15.5297 17.8581 15.7781 17.6237L15.8906 17.5206V12.0034V6.48618L15.7828 6.38774C15.6797 6.2893 15.4172 6.18618 15.3047 6.19555C15.2812 6.19555 15.1922 6.21899 15.1078 6.24243Z" fill="white"/>
<path d="M10.6125 8.03742C10.2937 8.18273 10.3125 7.9296 10.3125 12.0171V15.7155L10.4437 15.8468C10.6172 16.0155 10.8562 16.0624 11.1187 15.9827C11.5031 15.8609 11.4843 16.0765 11.4843 12.0124C11.4843 8.1921 11.4843 8.1921 11.2547 8.07023C11.0906 7.98117 10.7672 7.9671 10.6125 8.03742Z" fill="white"/>
<path d="M3.88125 8.1873C3.81094 8.2248 3.73125 8.29512 3.70312 8.34668C3.675 8.40293 3.65625 9.65449 3.65625 12.0123C3.65625 15.3311 3.66562 15.5982 3.74062 15.6873C3.85781 15.8373 3.99844 15.8936 4.23281 15.8936C4.47656 15.8936 4.73906 15.7389 4.78594 15.5654C4.82812 15.4107 4.82812 8.59512 4.78594 8.44043C4.71094 8.16387 4.19062 8.01855 3.88125 8.1873Z" fill="white"/>
<path d="M19.4015 8.22012C19.3171 8.27637 19.2328 8.3748 19.214 8.44043C19.1718 8.59512 19.1718 15.4107 19.214 15.5654C19.2609 15.7389 19.5234 15.8936 19.7671 15.8936C20.0015 15.8936 20.1421 15.8373 20.2593 15.6873C20.3343 15.5982 20.3437 15.3311 20.3437 12.0029C20.3437 8.6748 20.3343 8.40762 20.2593 8.31855C20.0718 8.08418 19.6734 8.0373 19.4015 8.22012Z" fill="white"/>
<path d="M1.63589 9.62691L1.47651 9.73473L1.46245 11.9097C1.45776 13.1097 1.46245 14.1363 1.47651 14.1972C1.53276 14.4316 1.94995 14.5535 2.28745 14.4363C2.58276 14.3332 2.57808 14.3847 2.57808 12.0035C2.57808 10.5457 2.55933 9.80973 2.52651 9.7441C2.40464 9.51441 1.89839 9.44879 1.63589 9.62691Z" fill="white"/>
<path d="M17.2688 9.56074C17.2125 9.58418 17.1234 9.66387 17.0672 9.73418C16.9688 9.85605 16.9688 9.88418 16.9688 12.0076V14.1592L17.1047 14.3092C17.2359 14.4545 17.2641 14.4639 17.55 14.4639C17.8219 14.4639 17.8734 14.4498 17.9859 14.3326L18.1172 14.2061V12.0029V9.79981L17.9906 9.67793C17.8922 9.57949 17.8125 9.54668 17.6156 9.53262C17.4797 9.52793 17.3203 9.5373 17.2688 9.56074Z" fill="white"/>
<path d="M21.6703 9.58867C21.5906 9.62148 21.5015 9.69179 21.4734 9.74804C21.4031 9.87929 21.4031 14.1262 21.4734 14.2621C21.6281 14.5527 22.3406 14.5527 22.5 14.2574C22.5281 14.1965 22.5468 13.3949 22.5468 12.0027C22.5468 10.6105 22.5281 9.80898 22.5 9.74804C22.3828 9.53711 21.9703 9.45742 21.6703 9.58867Z" fill="white"/>
<path d="M8.35781 10.0111C8.27813 10.0439 8.18906 10.1142 8.16094 10.1705C8.12813 10.2314 8.10938 10.8548 8.10938 12.0267V13.7892L8.22188 13.9017C8.4375 14.1173 8.89219 14.1127 9.1125 13.8923L9.23438 13.7705V12.0173C9.23438 10.508 9.225 10.2502 9.15938 10.1517C9.02813 9.95015 8.64844 9.88453 8.35781 10.0111Z" fill="white"/>
</svg>
