<svg width="139" height="100" viewBox="0 0 139 100" fill="none" xmlns="http://www.w3.org/2000/svg">
<g opacity="0.5">
<path opacity="0.5" d="M122.136 98.1616C125.097 100.617 11.8358 100.617 14.7977 98.1611C11.8368 95.7067 125.098 95.7066 122.136 98.1616Z" fill="#0E9384"/>
<g opacity="0.3">
<path opacity="0.8" d="M117.828 48.6556C116.72 113.529 20.2222 113.519 19.1237 48.6535C20.2316 -16.218 116.73 -16.2079 117.828 48.6556Z" fill="#0E9384"/>
<path opacity="0.6" d="M58.7769 69.0116C58.1277 107.022 1.58803 107.016 0.944458 69.0104C1.59349 31.0012 58.1332 31.0071 58.7769 69.0116Z" fill="#0E9384"/>
<path opacity="0.6" d="M78.1565 69.0116C78.8057 107.022 135.345 107.016 135.989 69.0104C135.34 31.0012 78.8001 31.0071 78.1565 69.0116Z" fill="#0E9384"/>
<path opacity="0.5" d="M96.3659 39.5712C96.8107 65.6134 135.548 65.6094 135.989 39.5703C135.544 13.529 96.8068 13.5332 96.3659 39.5712Z" fill="#0E9384"/>
<path opacity="0.5" d="M40.5675 39.5712C40.1227 65.6134 1.38538 65.6094 0.944458 39.5703C1.38914 13.529 40.1264 13.5332 40.5675 39.5712Z" fill="#0E9384"/>
</g>
</g>
<g opacity="0.9">
<g opacity="0.8">
<path d="M109.122 83.6265C109.699 79.5878 112.874 76.5962 116.723 75.5617C123.906 73.4654 124.576 68.1022 125.534 70.7838C126.492 73.4653 124.481 76.3615 126.204 78.4569C127.928 80.5523 126.557 84.4789 123.795 85.3407C121.033 86.2027 111.143 92.7611 111.143 98.0053C111.143 98.0053 103.705 98.0053 103.699 98.0053C103.318 98.0053 103.317 95.1375 103.333 94.9232C103.479 90.3698 108.055 87.828 109.122 83.6265Z" fill="#025D80"/>
<g opacity="0.8">
<path d="M114.501 87.0295C114.346 84.4534 115.534 81.8694 117.464 80.1687C118.561 79.1983 119.784 78.4914 120.847 77.5493C121.684 76.8561 122.627 76.1882 123.099 75.1787C122.492 76.8839 120.59 78.2048 119.228 79.3263C116.622 81.0752 114.718 83.8464 114.501 87.0295Z" fill="white"/>
</g>
</g>
<path d="M135.555 88.3213C134.522 91.5596 131.707 93.3615 128.503 94.0714C119.39 96.089 115.124 97.3632 113.707 97.819C113.047 98.1889 105.996 97.9406 105.135 98.008C107.595 92.2878 107.248 82.3222 119.819 83.1773C128.247 84.7688 131.439 78.5868 133.482 76.8252C133.915 76.4518 135.563 74.8686 135.821 76.13C134.959 80.1982 136.725 84.2608 135.555 88.3213Z" fill="#A83000"/>
<path d="M132.429 83.2363C130.824 89.3958 123.235 89.5419 118.037 90.015C114.842 90.3951 111.578 92.3204 110.785 95.6211C111.198 92.134 114.572 89.8867 117.837 89.4157C122.987 88.7509 130.228 89.0352 132.429 83.2363Z" fill="#A83000"/>
<path opacity="0.8" d="M132.429 83.2363C130.824 89.3958 123.235 89.5419 118.037 90.015C114.842 90.3951 111.578 92.3204 110.785 95.6211C111.198 92.134 114.572 89.8867 117.837 89.4157C122.987 88.7509 130.228 89.0352 132.429 83.2363Z" fill="white"/>
<g opacity="0.8">
<path d="M27.8107 83.6265C27.2341 79.5878 24.0588 76.5962 20.2097 75.5617C13.0271 73.4654 12.3568 68.1022 11.399 70.7838C10.4413 73.4653 12.4524 76.3615 10.7287 78.4569C9.00479 80.5523 10.3758 84.4789 13.138 85.3407C15.9002 86.2027 25.7901 92.7611 25.7901 98.0053C25.7901 98.0053 33.2281 98.0053 33.2344 98.0053C33.6153 98.0053 33.6157 95.1375 33.6001 94.9232C33.454 90.3698 28.878 87.828 27.8107 83.6265Z" fill="#025D80"/>
<g opacity="0.8">
<path d="M22.4321 87.0295C22.5873 84.4534 21.3996 81.8694 19.4694 80.1687C18.3724 79.1984 17.149 78.4914 16.086 77.5493C15.2491 76.8561 14.3063 76.1882 13.8338 75.1787C14.4412 76.8839 16.3436 78.2048 17.7056 79.3263C20.3112 81.0752 22.2156 83.8464 22.4321 87.0295Z" fill="white"/>
</g>
</g>
<path d="M1.37844 88.3213C2.41158 91.5596 5.22606 93.3615 8.43038 94.0714C17.5426 96.089 21.8087 97.3632 23.2257 97.819C23.8861 98.1889 30.9376 97.9406 31.7981 98.008C29.3385 92.2878 29.685 82.3222 17.1138 83.1773C8.68659 84.7688 5.49436 78.5868 3.45083 76.8252C3.0181 76.4518 1.37012 74.8686 1.11248 76.13C1.9743 80.1982 0.208161 84.2608 1.37844 88.3213Z" fill="#A83000"/>
<path d="M4.50372 83.2363C6.10881 89.3958 13.6983 89.5419 18.8957 90.015C22.091 90.3951 25.3547 92.3205 26.1477 95.6211C25.7348 92.134 22.361 89.8867 19.0957 89.4157C13.9463 88.7509 6.7048 89.0352 4.50372 83.2363Z" fill="#A83000"/>
<path opacity="0.8" d="M4.50372 83.2363C6.10881 89.3958 13.6983 89.5419 18.8957 90.015C22.091 90.3951 25.3547 92.3205 26.1477 95.6211C25.7348 92.134 22.361 89.8867 19.0957 89.4157C13.9463 88.7509 6.7048 89.0352 4.50372 83.2363Z" fill="white"/>
</g>
<g opacity="0.5">
<g opacity="0.8">
<path d="M15.192 65.3182C14.6528 65.1576 15.2621 64.698 15.4773 64.3881C17.7428 61.695 20.8036 58.1859 23.2801 55.2965C22.3786 56.2131 21.3841 57.2293 20.4345 58.1997C13.9062 64.8705 13.8476 64.8709 13.6736 64.8718C13.3862 64.8516 13.4211 64.5393 13.5891 64.389C16.4435 61.0014 20.3802 56.665 23.389 53.1702C20.7448 55.8571 17.095 59.6406 14.5846 62.1739C12.0181 64.6397 12.3253 64.6347 11.8434 64.4942C11.673 64.3236 11.7964 64.1753 12.3159 63.551C15.1789 60.1875 19.2792 55.7034 22.3758 52.1658C19.8595 54.6619 10.0411 64.8667 10.8098 63.7406C10.7519 63.7413 10.6943 63.7177 10.6536 63.6771C10.4844 63.5078 10.5881 63.3845 11.1637 62.7001C13.9764 59.4198 17.8891 55.1342 20.9462 51.6742C19.9454 52.6929 18.8352 53.8288 17.7758 54.9129C10.3665 62.4946 9.94638 62.8567 9.73567 62.8579C9.30125 62.7022 9.47231 62.5671 10.102 61.802C12.9763 58.4546 16.9836 54.0598 20.0975 50.5352C18.6152 52.0294 16.8464 53.8269 15.2556 55.4434C8.89062 61.9111 8.8706 61.9112 8.71475 61.9118C8.6582 61.9164 8.60101 61.889 8.56045 61.8484C8.33609 61.4275 9.02204 61.011 9.32907 60.5238C11.6773 57.7492 14.7897 54.293 17.4815 51.2638C15.349 53.3535 9.12044 60.021 7.88855 60.756C7.83109 60.756 7.77052 60.7315 7.72996 60.6909C7.52588 60.3494 7.96407 60.1491 8.17296 59.814C11.0621 56.4626 15.1953 51.9167 18.2631 48.4188C17.0529 49.648 15.6203 51.1183 14.2668 52.5074C7.67082 59.2762 7.31842 59.5779 7.11382 59.5792C6.68486 59.4326 6.8571 59.2785 7.43671 58.5691C10.0427 55.5006 13.6485 51.5136 16.4949 48.2646C15.3784 49.3929 14.1075 50.6833 12.8997 51.91C6.55982 58.348 6.53577 58.3481 6.37887 58.3487C6.02102 58.2396 6.09212 58.0979 6.50678 57.6215C9.20571 54.4753 12.9039 50.325 15.668 47.0938C14.3065 48.3989 5.94251 57.1166 6.25227 56.5244C6.19481 56.5248 6.13879 56.5018 6.09823 56.4612C5.8896 56.1306 6.35509 55.8904 6.56255 55.5434C8.53133 53.1482 11.1367 50.11 13.3449 47.4947C12.6298 48.2249 11.8692 49.0062 11.1645 49.7297C6.07574 54.8193 6.46025 54.8105 5.9234 54.6705C5.65757 54.3034 6.7405 53.4019 7.1341 52.7763C8.33232 51.2794 10.0961 49.1185 11.441 47.4562C4.50874 54.7721 5.40514 53.0399 8.87541 48.0552C8.20585 48.7341 8.19025 48.7341 8.09874 48.7345C7.88959 48.7412 7.80081 48.4464 7.98149 48.338C8.0847 48.2468 8.65079 47.6707 9.06753 47.2464C10.0706 46.2255 10.0706 46.2255 10.1753 46.225C10.74 46.3998 10.017 47.0019 9.81444 47.425C9.17919 48.3822 8.21456 49.798 7.50963 50.8521C8.50781 49.9058 14.1482 43.9364 13.8162 44.5568C14.1827 44.6661 14.0882 44.8204 13.6913 45.3273C12.0796 47.3869 9.90842 50.0107 8.14228 52.2085C8.9729 51.3634 9.94053 50.3697 10.8562 49.4294C15.9795 44.1684 16.0316 44.1682 16.2042 44.167C16.4824 44.1847 16.4617 44.4888 16.2957 44.6357C14.2293 47.1614 11.5101 50.3025 9.2425 53.0047C24.782 36.9259 16.5603 47.0168 10.1494 54.0876C10.9433 53.2834 11.7836 52.43 12.5931 51.608C19.4638 44.6309 19.5016 44.6308 19.6609 44.6301C20.0883 44.7807 19.9102 44.9337 19.3237 45.6546C16.6585 48.7949 12.9439 52.9002 10.0463 56.2101C11.2391 54.9978 12.6366 53.5637 13.9586 52.207C20.5405 45.4524 20.8921 45.1515 21.096 45.1502C21.5367 45.3189 21.3805 45.4181 20.6594 46.3084C17.8688 49.585 14.0186 53.8223 10.9382 57.3082C12.6323 55.6524 22.9631 44.9266 22.2116 45.9905C22.2693 45.9899 22.326 46.0131 22.3667 46.0536C22.5654 46.3535 22.202 46.506 22.0326 46.7744C18.9528 50.3001 14.8533 54.8217 11.6466 58.493C12.6538 57.4737 13.8087 56.3002 14.9489 55.1414C23.0565 46.903 23.1145 46.9027 23.2869 46.9021C23.7206 47.0599 23.5445 47.1957 22.9078 47.9713C19.9899 51.3718 15.8986 55.8569 12.7466 59.4267C14.1859 57.9706 15.9158 56.2006 17.4682 54.612C24.0267 47.9009 24.0741 47.9006 24.2501 47.8996C24.3086 47.9006 24.366 47.9231 24.4066 47.9637C24.5781 48.1352 24.4563 48.2802 23.8713 48.9772C21.1113 52.2035 17.3282 56.3484 14.2861 59.7854C15.2243 58.8319 16.2471 57.7881 17.2264 56.7888C24.4944 49.3718 24.874 49.0415 25.0686 49.0406C25.5078 49.1936 25.3167 49.363 24.6962 50.1339C21.8664 53.4775 17.8837 57.8345 14.8002 61.343C17.4998 58.6536 26.5122 49.1805 25.9729 50.1416C26.0309 50.141 26.0907 50.1651 26.1314 50.2058C26.2972 50.3716 26.2183 50.4887 25.5225 51.3311C23.0902 54.2311 19.8835 57.812 17.117 60.9692C20.293 57.7862 26.6253 51.1234 26.3564 51.7479C26.6561 51.7853 26.6127 52.0637 26.4156 52.2595C24.0742 55.0901 21.0383 58.5359 18.4505 61.5632C19.0205 60.9816 19.6137 60.3753 20.1876 59.7885C26.3868 53.3917 27.0349 52.8331 26.6603 53.9756C24.61 56.5297 21.8705 59.726 19.6255 62.4411C20.8522 61.2489 27.2172 54.5759 26.7674 55.2992C26.825 55.2989 26.8813 55.3219 26.9218 55.3624C27.1189 55.6554 26.7534 55.843 26.5926 56.13C25.253 57.8617 23.5087 60.0278 21.9824 61.9485C26.2224 57.6246 26.6089 57.1731 26.4814 58.073C26.0997 58.3471 23.9268 60.5921 22.2087 62.3317C19.6793 64.9071 19.6793 64.9071 19.5591 64.9077C19.2232 64.8063 19.2658 64.6829 19.6349 64.2231C21.0704 62.3841 22.9755 60.0219 24.5431 58.0422C24.1583 58.4349 23.7539 58.8483 23.353 59.2581C17.5103 65.2305 17.446 65.2309 17.2739 65.2318C17.2188 65.2333 17.1573 65.2082 17.1167 65.1675C16.9483 64.9989 16.9483 64.9989 18.6388 62.9563C20.17 61.1064 22.4083 58.4435 24.0993 56.4154C22.9884 57.5398 21.6764 58.8813 20.4951 60.0893C15.3825 65.317 15.3536 65.3171 15.1933 65.318C15.1928 65.3182 15.1924 65.3182 15.192 65.3182ZM26.1775 58.0738C26.2049 58.101 26.2357 58.1179 26.2666 58.127C26.2341 58.1172 26.2034 58.0994 26.1775 58.0738ZM8.09757 48.3041C8.15242 48.3041 8.20715 48.3249 8.24913 48.3666C8.1753 48.2932 8.07001 48.2898 7.99995 48.3275C8.03062 48.3119 8.06403 48.3041 8.09757 48.3041Z" fill="#025D80"/>
</g>
<g opacity="0.8">
<path d="M67.5757 21.7598C67.18 21.642 67.627 21.3047 67.7851 21.0773C69.4475 19.1011 71.6935 16.5261 73.5107 14.4058C72.8492 15.0784 72.1195 15.8241 71.4226 16.5362C66.5939 21.501 66.1262 21.949 66.3993 21.078C68.4939 18.5921 71.3827 15.41 73.5907 12.8455C71.4317 14.9366 67.1015 19.745 65.2344 21.2029C64.9178 21.0962 65.0526 20.9675 65.4652 20.4629C67.566 17.9948 70.575 14.7043 72.8472 12.1083C71.0007 13.94 63.7959 21.4283 64.3599 20.6021C64.3175 20.6025 64.2751 20.5853 64.2454 20.5554C64.0354 20.2259 65.2599 19.2046 65.7101 18.5803C67.4149 16.6447 69.9635 13.8167 71.7982 11.7476C57.9522 26.0808 63.9034 18.8461 71.1754 10.9118C70.0878 12.0082 68.7897 13.3273 67.6223 14.5135C62.9517 19.2594 62.9371 19.2596 62.8227 19.2601C62.567 19.2175 62.652 18.994 62.8302 18.7893C64.7008 16.4966 67.1008 13.8891 69.2557 11.4466C67.6902 12.98 63.1207 17.8735 62.2156 18.4119C61.8151 18.2891 62.2622 17.9492 62.4252 17.7208C64.5451 15.2616 67.5783 11.9257 69.8294 9.35896C57.817 21.8727 60.1204 18.535 68.5318 9.24574C56.0053 22.1158 61.4772 15.6758 67.9251 8.38665C66.9248 9.34492 60.789 15.742 61.0151 15.3069C60.6135 15.183 61.0841 14.8288 61.2434 14.587C62.6881 12.8295 64.6 10.5999 66.2204 8.68081C58.599 16.6814 59.7462 14.7398 64.8233 8.65247C59.7499 14.0124 60.4003 12.7346 62.9407 9.09209C62.4493 9.5902 62.4379 9.59033 62.3708 9.59059C62.2174 9.59553 62.1522 9.37923 62.2848 9.29968C62.443 9.18828 63.8925 7.59373 63.8945 7.74919C64.5677 7.73086 62.1229 10.6772 61.9386 11.1447C62.6712 10.4502 66.8103 6.06989 66.5664 6.52523C66.8352 6.60543 66.766 6.71865 66.4748 7.09068C65.292 8.60191 63.6989 10.5274 62.4029 12.1402C63.0124 11.52 63.7224 10.7909 64.3943 10.1009C68.1538 6.24043 68.192 6.24017 68.3188 6.23926C68.5227 6.25213 68.5078 6.47545 68.3859 6.58321C66.8696 8.43644 64.8741 10.7416 63.21 12.7245C74.5505 0.983478 68.581 8.33881 63.8754 13.5192C76.7434 0.282455 69.2864 9.0323 63.7998 15.0767C64.6751 14.1871 65.7005 13.1347 66.6705 12.1393C71.5004 7.18284 71.7585 6.96199 71.9081 6.96095C71.9504 6.96069 71.9946 6.9785 72.0245 7.00839C72.1477 7.13162 72.0884 7.21273 71.5877 7.81081C69.54 10.2152 66.7146 13.3245 64.4543 15.8825C65.6975 14.6675 73.2782 6.79677 72.7268 7.57748C72.7692 7.57709 72.8108 7.59412 72.8405 7.62388C73.0203 7.92208 72.1758 8.53393 71.8729 8.97887C69.8604 11.2533 67.0573 14.3717 64.9741 16.752C79.2102 2.09695 73.251 9.25289 65.7813 17.4372C66.8375 16.3687 68.1069 15.0697 69.2461 13.9041C74.0588 8.97939 74.0935 8.97926 74.2227 8.97848C74.2656 8.97926 74.3077 8.99577 74.3376 9.02554C74.5345 9.38404 73.2795 10.429 72.8036 11.0875C71.1556 12.96 68.7167 15.668 66.9112 17.7005C80.6762 3.47261 74.0105 11.4922 67.2884 18.8435C77.9089 7.73021 78.2786 8.21416 68.9884 18.5692C79.7014 7.45204 76.263 11.8672 69.9669 19.0051C80.0222 8.56421 75.6119 14.0651 70.8291 19.6493C71.7315 18.773 76.3979 13.878 76.0707 14.4086C76.5956 14.5426 75.4817 15.4841 75.2435 15.912C74.4975 16.8575 73.4221 18.2037 72.5585 19.2878C75.6697 16.1148 75.9537 15.7837 75.8599 16.4441C75.5798 16.6451 73.9852 18.2926 72.7246 19.5691C70.8685 21.459 70.8685 21.459 70.7802 21.4594C70.7381 21.4595 70.6973 21.4428 70.6677 21.4129C70.5639 21.3092 70.6055 21.2554 70.8359 20.957C71.8893 19.6074 73.2873 17.874 74.4376 16.4214C71.2405 19.6556 69.1245 21.9164 69.1037 21.6971C69.0628 21.6983 69.0179 21.6799 68.9881 21.65C68.8645 21.5263 68.8645 21.5263 70.1049 20.0274C71.2287 18.67 72.8711 16.7159 74.1119 15.2278C73.2968 16.0528 72.3341 17.0372 71.4672 17.9236C67.7155 21.7596 67.6943 21.7598 67.5767 21.7604C67.5763 21.7598 67.5759 21.7598 67.5757 21.7598ZM75.6369 16.4439C75.6571 16.4639 75.6796 16.4763 75.7023 16.4829C75.6783 16.4758 75.6558 16.4628 75.6369 16.4439ZM62.3697 9.27472C62.4098 9.27472 62.4501 9.29006 62.4809 9.32061C62.4267 9.26666 62.3495 9.26433 62.298 9.29188C62.3205 9.28044 62.3451 9.27472 62.3697 9.27472Z" fill="#025D80"/>
</g>
<g opacity="0.8">
<path d="M124.985 60.7313C124.722 60.6531 125.019 60.429 125.124 60.2777C126.229 58.9643 127.722 57.2527 128.929 55.8437C120.362 64.6847 125.315 58.887 128.983 54.8065C127.548 56.1964 124.67 59.3911 123.429 60.3611C123.218 60.291 123.308 60.2047 123.582 59.8694C124.978 58.2291 126.978 56.042 128.488 54.3167C120.049 63.0569 121.981 60.4488 127.791 54.077C118.669 63.5273 122.553 58.7759 127.377 53.5216C126.228 54.6618 121.373 59.6727 121.826 59.0699C121.798 59.0723 121.77 59.059 121.751 59.0391C121.648 58.8206 121.971 58.6392 122.126 58.3931C123.271 57.0399 124.789 55.3543 126.102 53.8768C125.062 54.896 122.024 58.1478 121.423 58.5063C121.156 58.4255 121.453 58.1988 121.562 58.0469C122.971 56.4125 124.987 54.1953 126.483 52.4893C118.563 60.7485 120.06 58.5454 125.62 52.4141C117.339 60.9255 120.935 56.6793 125.217 51.843C124.553 52.4797 120.474 56.7313 120.625 56.4425C120.357 56.361 120.67 56.1248 120.776 55.964C121.736 54.7958 123.007 53.3141 124.084 52.0385C119.046 57.3334 119.794 56.0434 123.155 52.0197C119.796 55.5738 120.222 54.7178 121.904 52.3118C121.578 52.6428 121.57 52.6428 121.525 52.6431C121.435 52.646 121.384 52.5268 121.451 52.464C121.596 52.3599 122.523 51.327 122.538 51.4191C122.947 51.499 121.384 53.3085 121.238 53.6759C126.384 48.3044 124.343 50.9665 121.547 54.3374C127.817 47.7959 125.69 50.5859 122.083 54.7256C129.574 46.9659 125.654 51.8157 122.526 55.2538C130.992 46.5399 126.128 52.2742 122.475 56.2889C131.216 47.1931 127.987 51.2777 122.91 56.8244C123.738 56.0163 128.773 50.7855 128.409 51.3046C128.649 51.369 128.419 51.5659 128.321 51.6869C126.819 53.4064 124.82 55.6118 123.256 57.4022C132.647 47.7297 128.748 52.435 123.792 57.8576C132.055 49.2679 130.381 51.6399 124.543 58.0325C133.612 48.6524 129.258 53.9187 124.794 58.7922C131.819 51.434 132.067 51.7691 125.924 58.6098C132.982 51.2782 130.744 54.1803 126.574 58.8994C133.214 52.0006 130.324 55.6255 127.147 59.3276C127.746 58.7456 130.849 55.4918 130.63 55.8444C131.123 55.8849 128.557 58.6158 128.296 59.0874C130.433 56.977 130.242 56.9812 130.491 57.0489C130.553 57.3147 129.214 58.3446 128.407 59.2744C127.173 60.5304 127.173 60.5304 127.115 60.5306C126.951 60.4812 126.971 60.421 127.152 60.1968C127.852 59.2999 128.781 58.1478 129.545 57.1823C123.159 63.8086 126.63 59.5239 129.329 56.3888C128.787 56.9372 128.147 57.5915 127.571 58.1806C125.078 60.7301 125.064 60.7303 124.985 60.7307C124.985 60.7313 124.985 60.7313 124.985 60.7313ZM130.342 57.1983C130.356 57.2115 130.371 57.2197 130.386 57.2243C130.37 57.2193 130.355 57.2107 130.342 57.1983ZM121.525 52.4333C121.551 52.4333 121.578 52.4434 121.599 52.4637C121.563 52.4278 121.511 52.4263 121.477 52.4446C121.492 52.4372 121.508 52.4333 121.525 52.4333Z" fill="#025D80"/>
</g>
</g>
<g opacity="0.5">
<path opacity="0.5" d="M4.4892 41.5342C12.0373 37.0858 20.0109 33.3285 28.2531 30.3564C20.7079 34.8105 12.7291 38.5566 4.4892 41.5342Z" fill="#025D80"/>
<path opacity="0.5" d="M38.9654 16.4424C46.6465 12.2309 54.5855 8.49211 62.7293 5.26465C55.0502 9.47988 47.1075 13.2112 38.9654 16.4424Z" fill="#025D80"/>
<path opacity="0.5" d="M122.629 64.4493C127.603 61.6914 132.758 59.2633 138.055 57.1934C133.083 59.954 127.925 62.3766 122.629 64.4493Z" fill="#025D80"/>
</g>
<path d="M93.8285 95.3089H46.0045C43.7694 95.3089 41.9573 93.4968 41.9573 91.2617V56.3753C41.9573 54.1402 43.7694 52.3281 46.0045 52.3281H93.8285C96.0637 52.3281 97.8757 54.1402 97.8757 56.3753V91.2617C97.8757 93.4968 96.0638 95.3089 93.8285 95.3089Z" fill="white"/>
<path d="M101.387 64.1501V93.9606C101.387 96.1957 99.5752 98.0077 97.34 98.0077H42.4931C40.258 98.0077 38.446 96.1957 38.446 93.9606V53.6761C38.446 51.4409 40.258 49.6289 42.4931 49.6289H67.8655C69.2907 49.6289 70.6107 50.3785 71.341 51.6024L75.2357 58.1296C75.9659 59.3534 77.286 60.103 78.7111 60.103H97.3402C99.5753 60.1029 101.387 61.9148 101.387 64.1501Z" fill="#025D80"/>
<path d="M54.2771 27.9707C54.2244 26.8551 53.3772 25.7194 52.6512 26.1388C52.3384 23.0785 49.6967 25.8614 48.1626 26.6161C47.0264 27.314 45.7006 27.1452 44.444 27.3198C43.4028 27.5436 42.1238 28.642 42.3919 29.8293C42.4604 30.1307 42.417 30.4319 42.2996 30.7183C42.2504 30.8483 41.7454 32.261 42.7971 32.6018C43.8942 32.9523 42.9762 33.9827 44.2274 34.7163C45.4785 35.45 45.1374 34.5303 46.0589 35.2649C46.9804 35.9993 47.226 35.3889 47.226 35.3889C47.5328 34.2304 48.0489 34.0603 49.5572 33.539C49.7505 33.6999 50.0127 33.8249 50.4164 33.8542C51.8629 33.9595 51.1506 33.2853 52.3018 33.5371C53.453 33.7889 53.4036 33.1325 53.4036 33.1325C53.3533 32.2272 53.1029 31.9731 54.2853 30.8697C55.7922 29.4625 54.3297 29.0864 54.2771 27.9707Z" fill="url(#paint0_linear_9733_360506)"/>
<path d="M51.966 31.0789C51.966 31.0789 51.5441 33.5736 52.3102 33.9346C52.3102 33.9346 50.9742 35.258 49.8392 33.2567C49.8392 33.2567 50.2042 31.869 50.0163 30.8193L51.966 31.0789Z" fill="url(#paint1_linear_9733_360506)"/>
<path d="M64.2479 60.5871C64.2479 60.5871 65.5614 61.1569 66.6154 60.5628C66.8057 61.7157 63.1918 62.7002 62.1062 62.4037C62.0058 60.7544 62.772 60.3629 64.2479 60.5871Z" fill="url(#paint2_linear_9733_360506)"/>
<path d="M64.1085 59.6425C64.1085 59.6425 64.2631 60.5079 64.1542 60.5813C64.0453 60.6548 63.069 61.0702 62.4849 60.8304L62.5094 60.0876L63.5461 59.4287L64.1085 59.6425Z" fill="url(#paint3_linear_9733_360506)"/>
<path d="M49.7541 48.1222C49.8664 50.5711 50.9747 50.9892 53.2227 50.4176C55.3426 50.2148 58.5223 48.9428 60.157 49.6962C60.157 49.6962 59.6894 51.8089 60.9252 54.3963C62.1615 56.9837 62.5094 60.0874 62.5094 60.0874C62.5094 60.0874 63.2759 60.0578 64.1082 59.6426C64.1082 59.6426 64.2393 54.5176 63.8588 50.5951C63.7166 49.1356 63.5042 47.8427 63.1882 47.0422C62.0218 44.0907 53.9398 45.296 53.9398 45.296C53.5835 45.1174 51.6056 44.1262 51.2984 43.9717L49.7078 46.0463C49.4544 46.3772 49.7109 47.7448 49.7541 48.1222Z" fill="url(#paint4_linear_9733_360506)"/>
<path opacity="0.5" d="M51.3113 45.8552L52.7816 50.499C54.6779 50.1871 57.2268 49.5807 58.826 49.466C56.1996 46.8517 52.3161 45.6787 52.3161 45.6787L51.3113 45.8552Z" fill="url(#paint5_linear_9733_360506)"/>
<path d="M53.0773 64.6668C53.0773 64.6668 53.8762 65.855 55.084 65.9231C54.6225 66.9966 51.0483 65.8767 50.294 65.0414C51.099 63.5985 51.9555 63.682 53.0773 64.6668Z" fill="url(#paint6_linear_9733_360506)"/>
<path d="M53.4695 63.7953C53.4695 63.7953 53.133 64.6075 53.0017 64.6105C52.8704 64.6136 51.8241 64.4368 51.4617 63.92L51.8829 63.3076L53.1113 63.3119L53.4695 63.7953Z" fill="url(#paint7_linear_9733_360506)"/>
<path d="M48.2773 50.6299C51.0457 51.4221 52.0152 51.256 52.7186 51.5471C54.2251 52.1726 55.4561 52.7799 55.5065 53.2888C55.5065 53.2888 53.9728 54.8155 53.6185 57.6608C53.2642 60.5061 51.8829 63.3077 51.8829 63.3077C51.8829 63.3077 52.5444 63.696 53.4696 63.7956C53.4696 63.7956 56.3434 59.5502 58.1385 56.0414C58.8061 54.7362 59.3246 53.5331 59.4901 52.6882C60.0994 49.5739 52.6438 46.2304 52.6438 46.2304C52.4401 45.8877 51.3096 43.986 51.1336 43.6904C51.1336 43.6904 48.6758 44.5795 48.6753 44.5798C48.2833 44.7218 47.7621 46.0111 47.595 46.3528C47.5391 46.4476 45.5421 49.8461 48.2773 50.6299Z" fill="url(#paint8_linear_9733_360506)"/>
<path d="M54.1569 34.9336C54.0497 35.0798 58.7162 40.0057 57.2701 41.6434C56.5872 42.1398 56.0405 41.6627 55.7203 41.0326C53.6578 38.5233 53.9185 37.4951 54.1569 34.9336Z" fill="url(#paint9_linear_9733_360506)"/>
<path d="M54.6424 37.7551C54.9801 34.0756 53.6443 35.0055 51.9181 33.2946C51.9226 33.302 51.9364 33.3247 51.956 33.359C51.9307 33.3152 51.9161 33.2919 51.9161 33.2919C52.0177 33.4643 52.1212 34.1932 51.5377 34.1263C50.3396 34.0773 49.8393 33.2854 49.8393 33.2854C48.9143 33.2641 47.0933 34.6304 47.0933 34.6305C46.1812 36.66 47.951 45.0208 48.2049 45.5648C49.0246 45.8478 49.7808 45.9962 50.4596 46.0568C51.5301 46.1526 52.4074 46.03 53.0387 45.8722C53.0387 45.8722 53.0386 45.8721 53.0386 45.872C53.5531 45.7396 53.8732 45.6143 54.1578 45.4667C53.8593 43.6081 54.3797 39.4735 54.6424 37.7551Z" fill="url(#paint10_linear_9733_360506)"/>
<path opacity="0.5" d="M54.1643 45.3014C53.4253 46.0461 51.3727 46.5274 48.2049 45.5648C48.2194 45.7041 47.3038 41.9654 47.0421 39.6301C47.0216 39.6836 47.0005 39.7367 46.9786 39.7905C46.7229 39.3911 46.9925 38.1898 47.4152 38.2232C47.6622 38.4691 47.5557 39.1101 48.2645 39.3287C48.8796 36.3836 48.987 39.7756 49.9892 39.7621C50.7685 39.858 51.8005 39.8983 53.1678 39.8337C53.1136 39.8468 51.4832 40.2312 49.9063 40.1345C49.694 40.1215 49.6033 40.3985 49.7838 40.5111C50.2041 40.7686 53.0418 40.3396 53.0418 40.3396L54.1242 41.2697C51.2367 43.2672 49.3768 43.4085 48.4918 43.2992C48.7877 44.2799 49.1998 45.0617 49.808 45.2404C51.6848 45.7876 53.1497 45.839 54.1643 45.3014Z" fill="url(#paint11_linear_9733_360506)"/>
<path d="M51.6992 41.2018C51.7053 41.2092 51.9985 41.5629 52.0053 41.5712C51.9497 41.4988 51.9399 41.3955 51.9715 41.3044L52.0117 41.1481L53.565 35.1147C53.3921 34.6681 58.5695 35.0871 58.6883 34.9919C58.8 35.005 58.9825 34.9671 59.0782 35.0416C58.9458 34.9247 58.826 34.6081 58.6179 34.6156L53.5186 34.5303C53.3924 34.5279 53.2815 34.6127 53.2503 34.7343L51.6468 40.963C51.6244 41.0511 51.6473 41.1377 51.6992 41.2018Z" fill="url(#paint12_linear_9733_360506)"/>
<path d="M52.0053 41.5706C52.0537 41.6374 52.1308 41.6816 52.2215 41.6832L56.864 41.7557C56.9827 41.7574 57.0895 41.6818 57.1269 41.5691L59.1865 35.3536C59.2459 35.1771 59.1115 34.9973 58.9326 34.9955C58.8927 35.002 58.7323 34.9866 58.6884 34.9914L53.8334 34.9102C53.7071 34.9079 53.5963 34.9926 53.5651 35.1142L52.0117 41.1475L51.9715 41.3038C51.9409 41.3941 51.9491 41.4987 52.0053 41.5706Z" fill="url(#paint13_linear_9733_360506)"/>
<path opacity="0.6" d="M59.1868 35.3536L57.1264 41.5689C57.0891 41.6806 56.9823 41.7562 56.8644 41.7549C56.7236 41.6378 51.692 41.9575 51.9528 41.4197C53.2532 41.4621 55.3401 41.4709 56.6538 41.5004C57.0792 41.5726 58.8161 35.3285 58.9897 35.002C59.1416 35.0372 59.2378 35.1977 59.1868 35.3536Z" fill="url(#paint14_linear_9733_360506)"/>
<path d="M55.0998 40.9799C54.9883 41.0292 54.877 41.0777 54.7645 41.1254C54.2881 40.7587 54.2692 40.061 54.2692 40.061C54.3681 40.0383 54.4536 40.0188 54.5215 40.0029C54.5215 40.0029 54.6877 40.4579 55.0998 40.9799Z" fill="url(#paint15_linear_9733_360506)"/>
<path d="M55.0482 41.0008C55.0482 41.0008 55.4477 40.8826 55.6258 40.8611C55.7457 40.9458 57.2588 39.7587 56.304 40.1794C55.86 40.4718 55.5067 40.5051 55.0948 40.6628L55.0482 41.0008Z" fill="url(#paint16_linear_9733_360506)"/>
<path d="M55.2104 40.6998C55.2104 40.6998 55.62 40.5182 55.807 40.4704C55.9467 40.5439 57.395 39.067 56.4352 39.6487C56.0231 40.1072 55.678 40.157 55.2129 40.3328L55.2104 40.6998Z" fill="url(#paint17_linear_9733_360506)"/>
<path d="M55.236 40.437C55.236 40.437 55.6172 40.2016 55.796 40.1291C55.9444 40.1831 57.1795 38.5238 56.3073 39.2299C55.961 39.7399 55.6259 39.8359 55.1888 40.073L55.236 40.437Z" fill="url(#paint18_linear_9733_360506)"/>
<path d="M55.3199 40.287C55.3199 40.287 55.597 39.935 55.74 39.8054C55.8979 39.8051 56.4879 37.8225 55.9115 38.7852C55.7614 39.3832 55.4796 39.5884 55.1506 39.9613L55.3199 40.287Z" fill="url(#paint19_linear_9733_360506)"/>
<path d="M55.3726 39.7136C54.9027 40.0641 55.142 38.6136 54.7617 38.882C54.7283 38.9458 54.9 39.114 54.7687 39.3112C54.6373 39.5084 54.6942 39.7802 54.5113 39.9453C54.3054 40.7772 55.3433 41.6602 55.6043 40.2242L55.3726 39.7136Z" fill="url(#paint20_linear_9733_360506)"/>
<path d="M54.7647 41.1252C53.4362 41.5313 49.1042 43.8185 48.1288 42.6993C47.443 41.7754 47.242 40.4205 46.8378 39.3174C46.3702 37.71 45.665 35.6621 47.3278 34.4883C47.3684 34.5798 49.5505 39.2773 49.4315 41.1643C50.1166 40.9996 52.9034 40.3706 54.2693 40.0608C54.2693 40.0608 54.2883 40.7585 54.7647 41.1252Z" fill="url(#paint21_linear_9733_360506)"/>
<path d="M53.1248 28.7389C52.4421 29.8947 53.379 31.9504 51.3387 32.8663C50.8427 32.7316 48.5553 32.0682 48.8035 30.1327C48.7671 29.7813 48.2882 29.5468 48.5756 29.0161C48.863 28.4853 49.0746 28.8788 49.0746 28.8788C49.0746 28.8788 49.1838 28.4541 49.3051 28.1021C49.4264 27.7501 53.1248 28.7389 53.1248 28.7389Z" fill="url(#paint22_linear_9733_360506)"/>
<path d="M53.1247 28.7388C53.1247 28.7388 51.8419 30.8047 48.9608 28.8897C46.0798 26.9748 51.2549 27.5554 51.2549 27.5554L53.1247 28.7388Z" fill="url(#paint23_linear_9733_360506)"/>
<path d="M68.4248 35.4437H65.5255C65.1251 35.4437 64.8007 35.1193 64.8007 34.7189V31.8195C64.8007 31.4192 65.1252 31.0947 65.5255 31.0947H68.4248C68.8252 31.0947 69.1496 31.4193 69.1496 31.8195V34.7189C69.1496 35.1191 68.8252 35.4437 68.4248 35.4437Z" fill="#A83000"/>
<path d="M74.2218 35.4437H71.3224C70.922 35.4437 70.5976 35.1193 70.5976 34.7189V31.8195C70.5976 31.4192 70.922 31.0947 71.3224 31.0947H74.2218C74.6221 31.0947 74.9466 31.4193 74.9466 31.8195V34.7189C74.9466 35.1191 74.6221 35.4437 74.2218 35.4437Z" fill="#A83000"/>
<path d="M80.0187 35.4437H77.1193C76.719 35.4437 76.3945 35.1193 76.3945 34.7189V31.8195C76.3945 31.4192 76.7191 31.0947 77.1193 31.0947H80.0187C80.4191 31.0947 80.7435 31.4193 80.7435 31.8195V34.7189C80.7435 35.1191 80.4191 35.4437 80.0187 35.4437Z" fill="#A83000"/>
<path d="M85.8156 35.4437H82.9162C82.5159 35.4437 82.1914 35.1193 82.1914 34.7189V31.8195C82.1914 31.4192 82.516 31.0947 82.9162 31.0947H85.8156C86.2159 31.0947 86.5404 31.4193 86.5404 31.8195V34.7189C86.5404 35.1191 86.2159 35.4437 85.8156 35.4437Z" fill="#A83000"/>
<path d="M91.6125 35.4437H88.7131C88.3127 35.4437 87.9883 35.1193 87.9883 34.7189V31.8195C87.9883 31.4192 88.3129 31.0947 88.7131 31.0947H91.6125C92.0128 31.0947 92.3373 31.4193 92.3373 31.8195V34.7189C92.3373 35.1191 92.0128 35.4437 91.6125 35.4437Z" fill="#A83000"/>
<path d="M68.4248 41.5863H65.5255C65.1251 41.5863 64.8007 41.2617 64.8007 40.8615V37.9621C64.8007 37.5618 65.1252 37.2373 65.5255 37.2373H68.4248C68.8252 37.2373 69.1496 37.5619 69.1496 37.9621V40.8615C69.1496 41.2617 68.8252 41.5863 68.4248 41.5863Z" fill="#A83000"/>
<path opacity="0.5" d="M74.2218 41.5863H71.3224C70.922 41.5863 70.5976 41.2617 70.5976 40.8615V37.9621C70.5976 37.5618 70.922 37.2373 71.3224 37.2373H74.2218C74.6221 37.2373 74.9466 37.5619 74.9466 37.9621V40.8615C74.9466 41.2617 74.6221 41.5863 74.2218 41.5863Z" fill="#A83000"/>
<path opacity="0.5" d="M80.0187 41.5863H77.1193C76.719 41.5863 76.3945 41.2617 76.3945 40.8615V37.9621C76.3945 37.5618 76.7191 37.2373 77.1193 37.2373H80.0187C80.4191 37.2373 80.7435 37.5619 80.7435 37.9621V40.8615C80.7435 41.2617 80.4191 41.5863 80.0187 41.5863Z" fill="#A83000"/>
<path opacity="0.5" d="M85.8156 41.5863H82.9162C82.5159 41.5863 82.1914 41.2617 82.1914 40.8615V37.9621C82.1914 37.5618 82.516 37.2373 82.9162 37.2373H85.8156C86.2159 37.2373 86.5404 37.5619 86.5404 37.9621V40.8615C86.5404 41.2617 86.2159 41.5863 85.8156 41.5863Z" fill="#A83000"/>
<path opacity="0.5" d="M91.6125 41.5863H88.7131C88.3127 41.5863 87.9883 41.2617 87.9883 40.8615V37.9621C87.9883 37.5618 88.3129 37.2373 88.7131 37.2373H91.6125C92.0128 37.2373 92.3373 37.5619 92.3373 37.9621V40.8615C92.3373 41.2617 92.0128 41.5863 91.6125 41.5863Z" fill="#A83000"/>
<defs>
<linearGradient id="paint0_linear_9733_360506" x1="44.3821" y1="34.915" x2="53.7332" y2="24.6345" gradientUnits="userSpaceOnUse">
<stop stop-color="#5C1A00"/>
<stop offset="1" stop-color="#B94300"/>
</linearGradient>
<linearGradient id="paint1_linear_9733_360506" x1="51.0944" y1="31.1956" x2="51.075" y2="33.5479" gradientUnits="userSpaceOnUse">
<stop stop-color="#F0877E"/>
<stop offset="1" stop-color="#FABEB2"/>
</linearGradient>
<linearGradient id="paint2_linear_9733_360506" x1="62.1331" y1="61.7756" x2="66.8171" y2="60.6021" gradientUnits="userSpaceOnUse">
<stop stop-color="#5C2100"/>
<stop offset="1" stop-color="#772900"/>
</linearGradient>
<linearGradient id="paint3_linear_9733_360506" x1="63.3489" y1="59.1669" x2="63.3365" y2="60.9808" gradientUnits="userSpaceOnUse">
<stop stop-color="#F0877E"/>
<stop offset="1" stop-color="#FABEB2"/>
</linearGradient>
<linearGradient id="paint4_linear_9733_360506" x1="54.9852" y1="46.6081" x2="69.1548" y2="61.4828" gradientUnits="userSpaceOnUse">
<stop stop-color="#5C2100"/>
<stop offset="1" stop-color="#772900"/>
</linearGradient>
<linearGradient id="paint5_linear_9733_360506" x1="52.7917" y1="46.8204" x2="58.2663" y2="52.5675" gradientUnits="userSpaceOnUse">
<stop stop-color="#5C2100"/>
<stop offset="1" stop-color="#772900"/>
</linearGradient>
<linearGradient id="paint6_linear_9733_360506" x1="50.6554" y1="64.5271" x2="55.2329" y2="66.0649" gradientUnits="userSpaceOnUse">
<stop stop-color="#5C2100"/>
<stop offset="1" stop-color="#772900"/>
</linearGradient>
<linearGradient id="paint7_linear_9733_360506" x1="53.0865" y1="62.9852" x2="52.0977" y2="64.5059" gradientUnits="userSpaceOnUse">
<stop stop-color="#F0877E"/>
<stop offset="1" stop-color="#FABEB2"/>
</linearGradient>
<linearGradient id="paint8_linear_9733_360506" x1="47.6238" y1="45.638" x2="59.2436" y2="62.6067" gradientUnits="userSpaceOnUse">
<stop stop-color="#5C2100"/>
<stop offset="1" stop-color="#772900"/>
</linearGradient>
<linearGradient id="paint9_linear_9733_360506" x1="55.1155" y1="47.4679" x2="55.939" y2="36.6264" gradientUnits="userSpaceOnUse">
<stop stop-color="#FF5C5C"/>
<stop offset="1" stop-color="#FF985C"/>
</linearGradient>
<linearGradient id="paint10_linear_9733_360506" x1="49.7225" y1="46.7912" x2="51.1576" y2="35.4618" gradientUnits="userSpaceOnUse">
<stop stop-color="#FF5C5C"/>
<stop offset="1" stop-color="#FF985C"/>
</linearGradient>
<linearGradient id="paint11_linear_9733_360506" x1="50.0722" y1="48.008" x2="50.791" y2="38.8521" gradientUnits="userSpaceOnUse">
<stop stop-color="#FF5C5C"/>
<stop offset="1" stop-color="#FF985C"/>
</linearGradient>
<linearGradient id="paint12_linear_9733_360506" x1="56.4463" y1="32.7148" x2="54.7474" y2="41.0015" gradientUnits="userSpaceOnUse">
<stop stop-color="#00D1D0"/>
<stop offset="1" stop-color="#0098D0"/>
</linearGradient>
<linearGradient id="paint13_linear_9733_360506" x1="55.5181" y1="36.7787" x2="55.8977" y2="46.7853" gradientUnits="userSpaceOnUse">
<stop stop-color="#00D1D0"/>
<stop offset="1" stop-color="#0098D0"/>
</linearGradient>
<linearGradient id="paint14_linear_9733_360506" x1="55.9853" y1="36.5813" x2="53.4067" y2="47.7662" gradientUnits="userSpaceOnUse">
<stop stop-color="#00D1D0"/>
<stop offset="1" stop-color="#0098D0"/>
</linearGradient>
<linearGradient id="paint15_linear_9733_360506" x1="53.8178" y1="40.8799" x2="56.151" y2="39.9229" gradientUnits="userSpaceOnUse">
<stop stop-color="#F0877E"/>
<stop offset="1" stop-color="#FABEB2"/>
</linearGradient>
<linearGradient id="paint16_linear_9733_360506" x1="54.0038" y1="41.3286" x2="56.3331" y2="40.3732" gradientUnits="userSpaceOnUse">
<stop stop-color="#F0877E"/>
<stop offset="1" stop-color="#FABEB2"/>
</linearGradient>
<linearGradient id="paint17_linear_9733_360506" x1="53.8615" y1="40.9797" x2="56.1903" y2="40.0246" gradientUnits="userSpaceOnUse">
<stop stop-color="#F0877E"/>
<stop offset="1" stop-color="#FABEB2"/>
</linearGradient>
<linearGradient id="paint18_linear_9733_360506" x1="53.7235" y1="40.6407" x2="56.0515" y2="39.6859" gradientUnits="userSpaceOnUse">
<stop stop-color="#F0877E"/>
<stop offset="1" stop-color="#FABEB2"/>
</linearGradient>
<linearGradient id="paint19_linear_9733_360506" x1="53.5804" y1="40.282" x2="55.9029" y2="39.3294" gradientUnits="userSpaceOnUse">
<stop stop-color="#F0877E"/>
<stop offset="1" stop-color="#FABEB2"/>
</linearGradient>
<linearGradient id="paint20_linear_9733_360506" x1="53.6276" y1="40.4731" x2="55.9873" y2="39.5053" gradientUnits="userSpaceOnUse">
<stop stop-color="#F0877E"/>
<stop offset="1" stop-color="#FABEB2"/>
</linearGradient>
<linearGradient id="paint21_linear_9733_360506" x1="49.5197" y1="46.6809" x2="50.9447" y2="35.4311" gradientUnits="userSpaceOnUse">
<stop stop-color="#FF5C5C"/>
<stop offset="1" stop-color="#FF985C"/>
</linearGradient>
<linearGradient id="paint22_linear_9733_360506" x1="50.5976" y1="26.9832" x2="50.7958" y2="31.5102" gradientUnits="userSpaceOnUse">
<stop stop-color="#F0877E"/>
<stop offset="1" stop-color="#FABEB2"/>
</linearGradient>
<linearGradient id="paint23_linear_9733_360506" x1="44.3902" y1="34.3475" x2="53.8802" y2="25.1498" gradientUnits="userSpaceOnUse">
<stop stop-color="#5C1A00"/>
<stop offset="1" stop-color="#B94300"/>
</linearGradient>
</defs>
</svg>
